<svg fill="#000000" xmlns="http://www.w3.org/2000/svg"  viewBox="0 0 26 26" width="104px" height="104px"><path d="M 21.398438 11.800781 L 21.199219 11.5 C 21.199219 9.101563 20.101563 8.199219 18.898438 7.5 C 19.300781 7.398438 19.699219 7.300781 19.800781 6.800781 C 20.5 6.601563 20.601563 6.300781 20.699219 6 C 20.898438 5.898438 21.398438 5.601563 21.398438 5 C 21.699219 4.800781 21.898438 4.5 21.800781 4.101563 C 22.101563 3.699219 22.199219 3.398438 22.101563 3.101563 C 22.5 2.601563 22.300781 2.300781 22.199219 2 C 22.5 1.398438 22.199219 0.800781 21.398438 0.898438 C 21.101563 0.398438 20.300781 0.5 20.199219 0.5 C 20.101563 0.300781 19.898438 0.199219 19.398438 0.300781 C 18.898438 0 18.5 0 18.101563 0.199219 C 17.601563 -0.199219 17.300781 0.101563 17 0.199219 C 16.398438 0 16.300781 0.300781 16 0.398438 C 15.398438 0.300781 15.199219 0.601563 14.898438 0.898438 L 14.601563 0.898438 C 13.699219 1.398438 13.199219 2.601563 13 3.101563 C 12.800781 2.5 12.398438 1.398438 11.398438 0.898438 L 11.101563 0.898438 C 10.800781 0.601563 10.601563 0.300781 10 0.398438 C 9.699219 0.300781 9.601563 0 9 0.199219 C 8.800781 0.101563 8.601563 0 8.300781 0 C 8.199219 0 8.101563 0.101563 7.898438 0.199219 C 7.5 0 7.101563 0 6.800781 0.300781 C 6.300781 0.199219 6.101563 0.398438 6 0.5 C 5.898438 0.5 5.101563 0.398438 4.800781 0.898438 C 3.898438 0.800781 3.601563 1.398438 3.898438 2 C 3.699219 2.300781 3.601563 2.5 4 3.101563 C 3.800781 3.300781 3.898438 3.699219 4.300781 4 C 4.199219 4.398438 4.300781 4.699219 4.699219 5 C 4.601563 5.5 5.199219 5.800781 5.300781 6 C 5.398438 6.300781 5.5 6.601563 6.199219 6.800781 C 6.300781 7.300781 6.699219 7.398438 7.101563 7.5 C 5.800781 8.199219 4.800781 9.199219 4.800781 11.5 L 4.601563 11.800781 C 3.199219 12.699219 1.898438 15.5 3.898438 17.800781 C 4 18.5 4.199219 19 4.398438 19.601563 C 4.699219 21.898438 6.601563 23 7.101563 23.101563 C 7.800781 23.699219 8.601563 24.199219 9.699219 24.601563 C 10.699219 25.601563 11.800781 26 12.898438 26 C 14 26 15.101563 25.601563 16.101563 24.601563 C 17.199219 24.199219 18 23.699219 18.699219 23.101563 C 19.199219 23 21.101563 21.898438 21.398438 19.601563 C 21.601563 19 21.800781 18.5 22 17.800781 C 24.199219 15.5 22.898438 12.699219 21.398438 11.800781 Z M 20.101563 11.398438 C 20 12.398438 15.199219 8.101563 16 8 C 18.300781 7.601563 20.199219 8.898438 20.101563 11.398438 Z M 14.800781 1.5 C 14.800781 1.699219 14.898438 1.800781 14.898438 1.898438 C 15.199219 1.601563 15.398438 1.300781 15.699219 1 C 15.699219 1.199219 15.601563 1.300781 15.800781 1.5 C 16 1.199219 16.199219 1 16.601563 0.800781 C 16.398438 1.101563 16.601563 1.199219 16.699219 1.300781 C 17 1.101563 17.199219 0.898438 17.699219 0.699219 C 17.601563 0.898438 17.398438 1 17.601563 1.199219 C 17.898438 1 18.101563 0.898438 18.800781 0.699219 C 18.699219 0.898438 18.398438 1 18.5 1.199219 C 18.800781 1.101563 19.199219 1 19.601563 0.898438 C 19.398438 1.101563 19.199219 1.199219 19.398438 1.300781 C 19.800781 1.199219 20.199219 1 20.699219 1.199219 L 20.398438 1.5 C 20.398438 1.5 21.101563 1.5 21.601563 1.5 C 21.398438 1.800781 21.199219 2 21.101563 2.398438 C 21.101563 2.398438 21.398438 2.398438 21.601563 2.398438 C 21.398438 3 21 3.101563 20.898438 3.300781 C 21 3.398438 21.199219 3.398438 21.5 3.300781 C 21.300781 3.699219 21 3.898438 20.699219 4.199219 C 20.800781 4.300781 20.898438 4.300781 21.199219 4.199219 C 20.898438 4.5 20.601563 4.699219 20.300781 5 C 20.398438 5.101563 20.601563 5.101563 20.800781 5.101563 C 20.5 5.398438 20 5.601563 19.601563 5.800781 C 19.699219 6 19.898438 5.898438 20 5.898438 C 19.699219 6.101563 19.199219 6.300781 18.800781 6.398438 C 18.898438 6.5 19 6.601563 19.199219 6.601563 C 18.699219 6.898438 18 6.699219 17.800781 6.898438 C 17.800781 7 18 7.101563 18.101563 7.199219 C 17.300781 7.199219 15.199219 7.199219 14.800781 5.601563 C 15.601563 4.699219 17 3.699219 19.5 2.398438 C 17.601563 3.101563 15.800781 3.898438 14.398438 5.101563 C 12.800781 4.300781 13.898438 2.300781 14.800781 1.5 Z M 13 7.300781 C 14.199219 7.300781 15.699219 8.199219 15.699219 9.101563 C 15.699219 9.898438 14.601563 10.5 13 10.5 C 11.398438 10.5 10.300781 9.699219 10.300781 9 C 10.300781 8.300781 11.601563 7.300781 13 7.300781 Z M 6.898438 6.699219 C 7.101563 6.699219 7.199219 6.601563 7.300781 6.5 C 6.800781 6.300781 6.300781 6.199219 6 5.898438 C 6.199219 5.898438 6.300781 5.898438 6.5 5.800781 C 6.101563 5.601563 5.699219 5.398438 5.300781 5.101563 C 5.5 5.101563 5.699219 5.101563 5.800781 5 C 5.5 4.800781 5.199219 4.5 4.898438 4.300781 C 5.199219 4.300781 5.300781 4.300781 5.398438 4.300781 C 5.101563 3.898438 4.800781 3.699219 4.601563 3.300781 C 4.800781 3.398438 5 3.398438 5.199219 3.300781 C 5.101563 3.101563 4.601563 3 4.398438 2.5 C 4.601563 2.5 4.898438 2.5 4.898438 2.5 C 4.800781 2.101563 4.601563 1.800781 4.5 1.601563 C 5 1.601563 5.699219 1.601563 5.699219 1.601563 L 5.398438 1.199219 C 5.898438 1.101563 6.398438 1.199219 6.699219 1.300781 C 6.898438 1.199219 6.699219 1 6.5 0.898438 C 6.898438 1 7.300781 1.101563 7.601563 1.199219 C 7.800781 1 7.5 0.898438 7.300781 0.699219 C 8 0.800781 8.199219 1 8.5 1.199219 C 8.699219 1 8.5 0.898438 8.398438 0.699219 C 8.898438 0.898438 9.101563 1.101563 9.398438 1.300781 C 9.5 1.199219 9.601563 1.101563 9.5 0.800781 C 9.699219 1 10 1.199219 10.199219 1.5 C 10.398438 1.398438 10.300781 1.199219 10.300781 1 C 10.601563 1.300781 10.898438 1.601563 11.101563 1.898438 C 11.199219 1.898438 11.199219 1.699219 11.199219 1.5 C 12 2.300781 13.199219 4.300781 11.5 5.101563 C 10.101563 3.898438 8.300781 3 6.398438 2.398438 C 8.898438 3.699219 10.300781 4.699219 11.101563 5.601563 C 10.699219 7.199219 8.601563 7.300781 7.800781 7.199219 C 8 7.101563 8.101563 7 8.101563 6.898438 C 8 6.800781 7.398438 6.898438 6.898438 6.699219 Z M 9.699219 7.898438 C 10.5 8 5.699219 12.300781 5.601563 11.300781 C 5.5 8.898438 7.398438 7.5 9.699219 7.898438 Z M 4.601563 17.398438 C 3.398438 16.398438 3 13.699219 5.199219 12.398438 C 6.5 12 5.699219 17.800781 4.601563 17.398438 Z M 9.199219 22.398438 C 8.5 22.800781 6.898438 22.601563 5.800781 21 C 5 19.601563 5.101563 18.199219 5.699219 17.800781 C 6.5 17.300781 7.800781 18 8.699219 19.101563 C 9.5 20 9.898438 21.800781 9.199219 22.398438 Z M 7.898438 16.300781 C 6.699219 15.5 6.5 13.699219 7.398438 12.199219 C 8.398438 10.800781 10.101563 10.199219 11.300781 11 C 12.5 11.800781 12.699219 13.601563 11.800781 15.101563 C 10.898438 16.601563 9.101563 17.101563 7.898438 16.300781 Z M 13 25.199219 C 11.5 25.300781 10.101563 24 10.101563 23.601563 C 10.101563 23 11.898438 22.5 13.101563 22.5 C 14.300781 22.398438 15.898438 22.898438 15.898438 23.5 C 15.898438 23.898438 14.398438 25.199219 13 25.199219 Z M 16 18.800781 C 16 20.300781 14.699219 21.5 13.101563 21.5 C 11.5 21.5 10.101563 20.300781 10.101563 18.800781 C 10.101563 17.300781 11.398438 16.101563 13 16.101563 C 14.699219 16.101563 16 17.300781 16 18.800781 Z M 14.199219 15 C 13.199219 13.601563 13.5 11.699219 14.699219 10.898438 C 15.898438 10.101563 17.699219 10.601563 18.601563 12.101563 C 19.5 13.601563 19.300781 15.398438 18.101563 16.199219 C 16.898438 16.898438 15.101563 16.398438 14.199219 15 Z M 20.199219 21 C 18.898438 22.800781 17.199219 22.800781 16.601563 22.300781 C 15.898438 21.699219 16.398438 19.699219 17.398438 18.601563 C 18.398438 17.398438 19.601563 16.601563 20.300781 17.199219 C 20.800781 17.898438 21.101563 19.800781 20.199219 21 Z M 21.101563 17.300781 C 20 17.800781 19.101563 12 20.5 12.300781 C 22.699219 13.5 22.300781 16.300781 21.101563 17.300781 Z"/></svg>